<svg width="44" height="35" viewBox="0 0 44 35" fill="none" xmlns="http://www.w3.org/2000/svg">
<path d="M2.45386 22.5005L2.79567 22.1356L2.79567 22.1356L2.45386 22.5005ZM12.4123 10.6996C12.5225 10.4464 12.4066 10.1518 12.1535 10.0416L8.02761 8.24511C7.77442 8.13487 7.47981 8.25074 7.36957 8.50393C7.25933 8.75711 7.37521 9.05172 7.62839 9.16196L11.2958 10.7588L9.69896 14.4263C9.58872 14.6794 9.7046 14.974 9.95779 15.0843C10.211 15.1945 10.5056 15.0786 10.6158 14.8255L12.4123 10.6996ZM14.9539 30C15.1494 29.5398 15.1494 29.5398 15.1494 29.5398C15.1494 29.5398 15.1493 29.5398 15.1492 29.5398C15.149 29.5397 15.1487 29.5395 15.1483 29.5394C15.1474 29.539 15.1461 29.5384 15.1442 29.5376C15.1406 29.536 15.1349 29.5336 15.1273 29.5304C15.1122 29.5239 15.0894 29.5141 15.0594 29.501C14.9993 29.475 14.9101 29.436 14.7947 29.3849C14.564 29.2826 14.2289 29.1318 13.813 28.9381C12.9811 28.5506 11.8274 27.9925 10.5414 27.3102C7.95909 25.9403 4.88287 24.0906 2.79567 22.1356L2.11205 22.8654C4.30016 24.9149 7.47394 26.8149 10.0728 28.1936C11.3774 28.8857 12.5471 29.4516 13.3909 29.8446C13.8129 30.0411 14.1537 30.1946 14.3895 30.2991C14.5074 30.3514 14.5991 30.3914 14.6615 30.4185C14.6927 30.432 14.7167 30.4423 14.7329 30.4493C14.7411 30.4528 14.7473 30.4555 14.7515 30.4573C14.7536 30.4582 14.7553 30.4589 14.7564 30.4594C14.757 30.4596 14.7574 30.4598 14.7577 30.4599C14.7579 30.46 14.758 30.4601 14.7581 30.4601C14.7582 30.4601 14.7583 30.4602 14.9539 30ZM2.79567 22.1356C2.07352 21.4592 1.70355 20.8098 1.56567 20.2031C1.42831 19.5987 1.51019 18.9881 1.77644 18.3671C2.32011 17.0992 3.60764 15.8472 5.16623 14.7233C6.70963 13.6104 8.45149 12.6702 9.81468 12.0061C10.4948 11.6748 11.0773 11.4138 11.4891 11.2359C11.6949 11.147 11.858 11.0789 11.969 11.0333C12.0245 11.0105 12.067 10.9932 12.0954 10.9818C12.1096 10.9761 12.1202 10.9719 12.1272 10.9691C12.1307 10.9678 12.1332 10.9667 12.1348 10.9661C12.1357 10.9658 12.1362 10.9656 12.1366 10.9654C12.1367 10.9654 12.1368 10.9653 12.1369 10.9653C12.1369 10.9653 12.1369 10.9653 11.9539 10.5C11.7708 10.0347 11.7707 10.0348 11.7705 10.0349C11.7703 10.0349 11.77 10.035 11.7697 10.0351C11.7691 10.0354 11.7682 10.0357 11.7671 10.0362C11.765 10.037 11.7618 10.0383 11.7578 10.0399C11.7497 10.0431 11.7379 10.0478 11.7225 10.054C11.6918 10.0663 11.6468 10.0845 11.5888 10.1084C11.4727 10.1561 11.3042 10.2265 11.0925 10.3179C10.6693 10.5008 10.0727 10.7681 9.37673 11.1071C7.98781 11.7838 6.18963 12.7525 4.58135 13.9122C2.98825 15.0609 1.51243 16.4453 0.857364 17.9731C0.52425 18.75 0.397917 19.5771 0.590532 20.4247C0.782622 21.2699 1.28082 22.0868 2.11205 22.8654L2.79567 22.1356Z" fill="white"/>
<path d="M41.4539 16.4995L41.112 16.8644L41.112 16.8644L41.4539 16.4995ZM31.4954 28.3004C31.3852 28.5536 31.5011 28.8482 31.7543 28.9584L35.8801 30.7549C36.1333 30.8651 36.4279 30.7493 36.5381 30.4961C36.6484 30.2429 36.5325 29.9483 36.2793 29.838L32.6119 28.2412L34.2088 24.5737C34.319 24.3206 34.2031 24.026 33.9499 23.9157C33.6967 23.8055 33.4021 23.9214 33.2919 24.1745L31.4954 28.3004ZM28.9539 9C28.7583 9.46018 28.7583 9.46017 28.7583 9.46017C28.7583 9.46019 28.7584 9.46021 28.7585 9.46025C28.7587 9.46033 28.759 9.46046 28.7594 9.46064C28.7603 9.46101 28.7616 9.46159 28.7635 9.46238C28.7672 9.46395 28.7728 9.46637 28.7804 9.46962C28.7955 9.47611 28.8183 9.48592 28.8483 9.49895C28.9084 9.52502 28.9977 9.56398 29.113 9.6151C29.3437 9.71736 29.6788 9.86824 30.0947 10.0619C30.9266 10.4494 32.0803 11.0075 33.3663 11.6898C35.9486 13.0597 39.0248 14.9094 41.112 16.8644L41.7957 16.1346C39.6076 14.0851 36.4338 12.1851 33.8349 10.8064C32.5303 10.1143 31.3607 9.54839 30.5169 9.15541C30.0948 8.95886 29.754 8.80541 29.5182 8.70089C29.4003 8.64863 29.3087 8.60859 29.2462 8.5815C29.215 8.56796 29.191 8.55766 29.1748 8.55068C29.1667 8.54719 29.1604 8.54453 29.1562 8.54272C29.1541 8.54181 29.1524 8.54112 29.1513 8.54064C29.1507 8.54039 29.1503 8.54021 29.15 8.54007C29.1498 8.54 29.1497 8.53994 29.1496 8.53991C29.1495 8.53986 29.1494 8.53982 28.9539 9ZM41.112 16.8644C41.8342 17.5408 42.2042 18.1902 42.342 18.7969C42.4794 19.4013 42.3975 20.0119 42.1313 20.6329C41.5876 21.9008 40.3001 23.1528 38.7415 24.2767C37.1981 25.3896 35.4562 26.3298 34.093 26.9939C33.413 27.3252 32.8304 27.5862 32.4186 27.7641C32.2128 27.853 32.0498 27.9211 31.9387 27.9667C31.8832 27.9895 31.8407 28.0068 31.8123 28.0182C31.7981 28.0239 31.7875 28.0281 31.7805 28.0309C31.777 28.0322 31.7745 28.0333 31.7729 28.0339C31.7721 28.0342 31.7715 28.0344 31.7711 28.0346C31.771 28.0346 31.7709 28.0347 31.7708 28.0347C31.7708 28.0347 31.7708 28.0347 31.9539 28.5C32.1369 28.9653 32.137 28.9652 32.1373 28.9651C32.1374 28.9651 32.1377 28.965 32.138 28.9649C32.1386 28.9646 32.1395 28.9643 32.1406 28.9638C32.1427 28.963 32.1459 28.9617 32.1499 28.9601C32.158 28.9569 32.1698 28.9522 32.1852 28.946C32.2159 28.9337 32.2609 28.9155 32.3189 28.8916C32.435 28.8439 32.6035 28.7735 32.8152 28.6821C33.2384 28.4992 33.835 28.2319 34.531 27.8929C35.9199 27.2162 37.7181 26.2475 39.3264 25.0878C40.9195 23.9391 42.3953 22.5547 43.0504 21.0269C43.3835 20.25 43.5098 19.4229 43.3172 18.5753C43.1251 17.7301 42.6269 16.9132 41.7957 16.1346L41.112 16.8644Z" fill="white"/>
<ellipse cx="21.9539" cy="27.5" rx="8" ry="7.5" fill="white"/>
<ellipse cx="21.9539" cy="9.5" rx="8" ry="7.5" fill="white"/>
<path d="M15.322 30V24.3984H17.5427C17.6794 24.3984 17.822 24.4043 17.9704 24.416C18.1228 24.4238 18.2712 24.4453 18.4157 24.4805C18.5642 24.5156 18.7048 24.5664 18.8376 24.6328C18.9704 24.6992 19.0857 24.791 19.1833 24.9082C19.2849 25.0215 19.365 25.1641 19.4235 25.3359C19.4821 25.5078 19.5114 25.7148 19.5114 25.957C19.5114 26.168 19.4802 26.3418 19.4177 26.4785C19.3591 26.6152 19.2849 26.7266 19.195 26.8125C19.1052 26.8945 19.0075 26.957 18.9021 27C18.8005 27.0391 18.7067 27.0664 18.6208 27.082C18.7419 27.1016 18.8669 27.1406 18.9958 27.1992C19.1286 27.2539 19.2497 27.334 19.3591 27.4395C19.4685 27.5449 19.5583 27.6758 19.6286 27.832C19.7028 27.9844 19.74 28.168 19.74 28.3828C19.74 28.9453 19.5661 29.3555 19.2185 29.6133C18.8747 29.8711 18.3435 30 17.6247 30H15.322ZM17.3259 26.5312C17.4509 26.5312 17.5525 26.5215 17.6306 26.502C17.7126 26.4785 17.7751 26.4453 17.8181 26.4023C17.865 26.3594 17.8962 26.3086 17.9118 26.25C17.9314 26.1875 17.9411 26.1172 17.9411 26.0391C17.9411 25.8828 17.8962 25.7598 17.8064 25.6699C17.7204 25.5801 17.5525 25.5352 17.3025 25.5352H16.8923V26.5312H17.3259ZM17.4255 28.8574C17.5192 28.8574 17.6091 28.8496 17.695 28.834C17.7849 28.8184 17.861 28.7891 17.9235 28.7461C17.99 28.7031 18.0427 28.6426 18.0817 28.5645C18.1208 28.4824 18.1403 28.377 18.1403 28.248C18.1403 28.1035 18.115 27.9902 18.0642 27.9082C18.0173 27.8262 17.9567 27.7656 17.8825 27.7266C17.8083 27.6836 17.7282 27.6582 17.6423 27.6504C17.5603 27.6426 17.4821 27.6387 17.4079 27.6387H16.8923V28.8574H17.4255ZM24.8132 29.8828C24.7507 29.9102 24.6746 29.9355 24.5847 29.959C24.4949 29.9785 24.3992 29.9961 24.2976 30.0117C24.196 30.0273 24.0925 30.0391 23.9871 30.0469C23.8816 30.0547 23.78 30.0586 23.6824 30.0586C23.5339 30.0586 23.4109 30.041 23.3132 30.0059C23.2156 29.9707 23.1355 29.9297 23.073 29.8828C23.0105 29.832 22.9617 29.7793 22.9265 29.7246C22.8914 29.666 22.864 29.6133 22.8445 29.5664C22.6375 29.7383 22.4265 29.8633 22.2117 29.9414C22.0007 30.0195 21.78 30.0586 21.5496 30.0586C21.3542 30.0586 21.1804 30.0391 21.0281 30C20.8796 29.9648 20.7527 29.9004 20.6472 29.8066C20.5457 29.7129 20.4675 29.5859 20.4128 29.4258C20.3621 29.2656 20.3367 29.0605 20.3367 28.8105V26.0156H21.7546V28.4062C21.7546 28.5664 21.7722 28.6816 21.8074 28.752C21.8464 28.8223 21.9402 28.8574 22.0886 28.8574C22.1707 28.8574 22.2488 28.8438 22.323 28.8164C22.4011 28.7891 22.4714 28.7578 22.5339 28.7227C22.6003 28.6836 22.6589 28.6445 22.7097 28.6055C22.7605 28.5664 22.7976 28.5352 22.821 28.5117V26.0156H24.2332V28.8984C24.2332 29.0312 24.3015 29.0977 24.4382 29.0977C24.4695 29.0977 24.5046 29.0938 24.5437 29.0859C24.5867 29.0781 24.6316 29.0703 24.6785 29.0625L24.8132 29.8828ZM24.7185 26.0156H26.2185L26.9158 28.2129L27.531 26.0156H29.031L27.5896 30C27.4529 30.3711 27.3123 30.6641 27.1678 30.8789C27.0232 31.0938 26.8748 31.2559 26.7225 31.3652C26.574 31.4746 26.4236 31.543 26.2713 31.5703C26.1189 31.6016 25.9705 31.6172 25.826 31.6172C25.5291 31.6172 25.2869 31.5879 25.0994 31.5293C24.9119 31.4746 24.7459 31.4082 24.6014 31.3301L24.8416 30.334C24.9392 30.4082 25.0428 30.4688 25.1521 30.5156C25.2654 30.5625 25.4021 30.5859 25.5623 30.5859C25.7381 30.5859 25.8748 30.5332 25.9725 30.4277C26.074 30.3223 26.1482 30.1797 26.1951 30L24.7185 26.0156Z" fill="black"/>
<path d="M15.7209 10.5C15.8107 10.5352 15.9142 10.5742 16.0314 10.6172C16.1486 10.6562 16.2736 10.6914 16.4064 10.7227C16.5432 10.7539 16.6818 10.7812 16.8225 10.8047C16.967 10.8242 17.1115 10.834 17.256 10.834C17.3146 10.834 17.381 10.8301 17.4553 10.8223C17.5295 10.8105 17.5978 10.7891 17.6603 10.7578C17.7267 10.7266 17.7814 10.6816 17.8244 10.623C17.8713 10.5645 17.8947 10.4883 17.8947 10.3945C17.8947 10.2578 17.8342 10.1465 17.7131 10.0605C17.5959 9.9707 17.4475 9.88672 17.2678 9.80859C17.092 9.72656 16.9006 9.64062 16.6935 9.55078C16.4865 9.46094 16.2932 9.34766 16.1135 9.21094C15.9377 9.07031 15.7892 8.89648 15.6682 8.68945C15.551 8.47852 15.4924 8.21484 15.4924 7.89844C15.4924 7.61719 15.5451 7.375 15.6506 7.17188C15.76 6.96875 15.9084 6.80273 16.0959 6.67383C16.2873 6.54492 16.5119 6.45117 16.7697 6.39258C17.0314 6.33008 17.3146 6.29883 17.6193 6.29883C17.9006 6.29883 18.1701 6.33008 18.4279 6.39258C18.6896 6.45508 18.9318 6.53125 19.1545 6.62109L18.9611 7.89844C18.8478 7.84766 18.7385 7.80078 18.633 7.75781C18.5275 7.71484 18.4201 7.67969 18.3107 7.65234C18.2053 7.62109 18.0939 7.59766 17.9767 7.58203C17.8596 7.56641 17.7326 7.55859 17.5959 7.55859C17.467 7.55859 17.3635 7.56836 17.2853 7.58789C17.2072 7.60352 17.1467 7.625 17.1037 7.65234C17.0646 7.67969 17.0373 7.71289 17.0217 7.75195C17.01 7.79102 17.0041 7.83008 17.0041 7.86914C17.0041 7.98633 17.0627 8.08398 17.1799 8.16211C17.301 8.24023 17.4494 8.31641 17.6252 8.39062C17.8049 8.46484 17.9982 8.54883 18.2053 8.64258C18.4123 8.73242 18.6037 8.84766 18.7795 8.98828C18.9592 9.125 19.1076 9.29688 19.2248 9.50391C19.3459 9.70703 19.4064 9.96289 19.4064 10.2715C19.4064 10.5645 19.3576 10.8242 19.26 11.0508C19.1662 11.2773 19.0275 11.4688 18.8439 11.625C18.6642 11.7773 18.4416 11.8945 18.176 11.9766C17.9142 12.0547 17.6154 12.0938 17.2795 12.0938C16.9318 12.0938 16.6135 12.0684 16.3244 12.0176C16.0392 11.9668 15.7697 11.8926 15.5158 11.7949L15.7209 10.5ZM23.5012 11.8945C23.4114 11.918 23.3039 11.9395 23.1789 11.959C23.0539 11.9785 22.9211 11.9961 22.7805 12.0117C22.6438 12.0273 22.5051 12.0391 22.3645 12.0469C22.2278 12.0547 22.1028 12.0586 21.9895 12.0586C21.5637 12.0586 21.2121 12.0098 20.9348 11.9121C20.6575 11.8145 20.4367 11.6797 20.2727 11.5078C20.1125 11.332 19.9992 11.127 19.9328 10.8926C19.8703 10.6543 19.8391 10.3945 19.8391 10.1133C19.8391 9.84375 19.8723 9.58008 19.9387 9.32227C20.0051 9.06445 20.1164 8.83398 20.2727 8.63086C20.4289 8.42773 20.634 8.26562 20.8879 8.14453C21.1457 8.01953 21.4641 7.95703 21.843 7.95703C22.1985 7.95703 22.4992 8.00586 22.7453 8.10352C22.9953 8.19727 23.1965 8.32617 23.3489 8.49023C23.5051 8.65039 23.6164 8.83984 23.6828 9.05859C23.7532 9.27344 23.7883 9.50195 23.7883 9.74414C23.7883 9.83008 23.7844 9.93555 23.7766 10.0605C23.7688 10.1816 23.761 10.293 23.7532 10.3945H21.2688C21.261 10.6133 21.3352 10.7812 21.4914 10.8984C21.6516 11.0156 21.9172 11.0742 22.2883 11.0742C22.5539 11.0742 22.8137 11.0508 23.0676 11.0039C23.3215 10.957 23.5422 10.9004 23.7297 10.834L23.5012 11.8945ZM22.4231 9.66211C22.4465 9.36133 22.4055 9.15234 22.3 9.03516C22.1946 8.91406 22.0422 8.85352 21.843 8.85352C21.7336 8.85352 21.6418 8.87305 21.5676 8.91211C21.4934 8.95117 21.4348 9.00586 21.3918 9.07617C21.3489 9.14648 21.3176 9.23242 21.2981 9.33398C21.2785 9.43164 21.2688 9.54102 21.2688 9.66211H22.4231ZM26.4182 11.9062C26.3675 11.9258 26.301 11.9473 26.219 11.9707C26.1409 11.9902 26.051 12.0078 25.9495 12.0234C25.8479 12.043 25.7366 12.0566 25.6155 12.0645C25.4983 12.0762 25.3772 12.082 25.2522 12.082C25.1585 12.082 25.0628 12.0703 24.9651 12.0469C24.8675 12.0273 24.7776 11.9883 24.6956 11.9297C24.6175 11.8711 24.553 11.7891 24.5022 11.6836C24.4514 11.5742 24.426 11.4316 24.426 11.2559V6.39844H25.844V10.9219C25.844 11.0547 25.9104 11.1211 26.0432 11.1211C26.0745 11.1211 26.1096 11.1172 26.1487 11.1094C26.1917 11.1016 26.2366 11.0938 26.2835 11.0859L26.4182 11.9062ZM28.7142 11.9062C28.6634 11.9258 28.597 11.9473 28.515 11.9707C28.4368 11.9902 28.347 12.0078 28.2454 12.0234C28.1439 12.043 28.0325 12.0566 27.9114 12.0645C27.7942 12.0762 27.6732 12.082 27.5482 12.082C27.4544 12.082 27.3587 12.0703 27.261 12.0469C27.1634 12.0273 27.0735 11.9883 26.9915 11.9297C26.9134 11.8711 26.8489 11.7891 26.7982 11.6836C26.7474 11.5742 26.722 11.4316 26.722 11.2559V6.39844H28.14V10.9219C28.14 11.0547 28.2064 11.1211 28.3392 11.1211C28.3704 11.1211 28.4056 11.1172 28.4446 11.1094C28.4876 11.1016 28.5325 11.0938 28.5794 11.0859L28.7142 11.9062Z" fill="black"/>
</svg>
