<svg width="215" height="57" viewBox="0 0 215 57" fill="none" xmlns="http://www.w3.org/2000/svg">
<path d="M47.3087 44V34.8447H44.6354V32.3301H53.4855L53.1193 34.8447H50.5924V44H47.3087ZM53.5646 44V35.6992H56.5187V36.5781C56.7791 36.2119 57.0274 35.9556 57.2634 35.8091C57.5075 35.6545 57.8005 35.5771 58.1423 35.5771C58.4515 35.5771 58.716 35.6138 58.9357 35.687C59.1636 35.7521 59.3711 35.8294 59.5583 35.9189L59.07 38.2017C58.9154 38.1284 58.7445 38.0633 58.5573 38.0063C58.3701 37.9494 58.1382 37.9209 57.8615 37.9209C57.6825 37.9209 57.5197 37.9535 57.3732 38.0186C57.2267 38.0837 57.0965 38.165 56.9826 38.2627C56.8687 38.3522 56.771 38.4458 56.6896 38.5435C56.6164 38.6411 56.5594 38.7266 56.5187 38.7998V44H53.5646ZM68.7072 43.7559C68.577 43.8128 68.4183 43.8657 68.2312 43.9146C68.044 43.9552 67.8446 43.9919 67.633 44.0244C67.4214 44.057 67.2058 44.0814 66.9861 44.0977C66.7663 44.1139 66.5588 44.1221 66.3635 44.1221C66.0949 44.1221 65.863 44.0977 65.6677 44.0488C65.4805 44 65.3218 43.939 65.1916 43.8657C65.0696 43.7843 64.9678 43.6948 64.8864 43.5972C64.8132 43.4914 64.7562 43.3856 64.7155 43.2798C64.5284 43.5321 64.2557 43.7355 63.8977 43.8901C63.5477 44.0448 63.0757 44.1221 62.4817 44.1221C62.0015 44.1221 61.5905 44.0651 61.2488 43.9512C60.907 43.8291 60.6262 43.6623 60.4065 43.4507C60.1949 43.2391 60.0362 42.9909 59.9304 42.7061C59.8327 42.4131 59.7839 42.0957 59.7839 41.7539C59.7839 41.1924 59.8978 40.7204 60.1257 40.3379C60.3617 39.9554 60.6669 39.6462 61.0412 39.4102C61.4237 39.1742 61.8591 39.0073 62.3474 38.9097C62.8438 38.8039 63.3565 38.751 63.8855 38.751C64.0157 38.751 64.1459 38.755 64.2761 38.7632C64.4144 38.7713 64.5162 38.7835 64.5813 38.7998V38.5557C64.5813 38.3929 64.5609 38.2546 64.5202 38.1406C64.4795 38.0267 64.4022 37.9331 64.2883 37.8599C64.1825 37.7866 64.0279 37.7337 63.8244 37.7012C63.621 37.6686 63.3565 37.6523 63.031 37.6523C62.6078 37.6523 62.1521 37.6971 61.6638 37.7866C61.1836 37.8761 60.7401 37.9982 60.3332 38.1528L60.7849 35.98C61.1511 35.866 61.5743 35.7725 62.0544 35.6992C62.5346 35.6178 63.0269 35.5771 63.5315 35.5771C64.1418 35.5771 64.6952 35.6138 65.1916 35.687C65.688 35.7521 66.1071 35.8945 66.4489 36.1143C66.7989 36.3258 67.0674 36.6351 67.2546 37.042C67.4418 37.4408 67.5354 37.9697 67.5354 38.6289V41.7051C67.5354 41.8516 67.5639 41.9574 67.6208 42.0225C67.6859 42.0876 67.7999 42.1201 67.9626 42.1201C68.0277 42.1201 68.101 42.112 68.1823 42.0957C68.2637 42.0794 68.3492 42.0632 68.4387 42.0469L68.7072 43.7559ZM64.5813 40.3257C64.5324 40.3094 64.4511 40.3013 64.3371 40.3013C64.2232 40.3013 64.1133 40.3013 64.0075 40.3013C63.5274 40.3013 63.1815 40.3745 62.9699 40.521C62.7665 40.6593 62.6648 40.8709 62.6648 41.1558C62.6648 41.3674 62.6892 41.5382 62.738 41.6685C62.795 41.7905 62.8641 41.8882 62.9455 41.9614C63.035 42.0265 63.1327 42.0713 63.2385 42.0957C63.3524 42.112 63.4664 42.1201 63.5803 42.1201C63.9384 42.1201 64.1947 42.0347 64.3493 41.8638C64.504 41.6929 64.5813 41.3877 64.5813 40.9482V40.3257ZM79.1135 43.7559C78.9833 43.8128 78.8246 43.8657 78.6375 43.9146C78.4503 43.9552 78.2509 43.9919 78.0393 44.0244C77.8277 44.057 77.6121 44.0814 77.3923 44.0977C77.1726 44.1139 76.9651 44.1221 76.7698 44.1221C76.4605 44.1221 76.2001 44.0895 75.9885 44.0244C75.7851 43.9674 75.6183 43.8942 75.488 43.8047C75.3578 43.707 75.2561 43.6012 75.1829 43.4873C75.1096 43.3734 75.0527 43.2676 75.012 43.1699C74.9143 43.292 74.8045 43.4141 74.6824 43.5361C74.5603 43.6501 74.4016 43.7518 74.2063 43.8413C74.0191 43.9227 73.7872 43.9878 73.5105 44.0366C73.242 44.0936 72.9124 44.1221 72.5217 44.1221C72.0904 44.1221 71.6795 44.0488 71.2888 43.9023C70.8982 43.7477 70.5523 43.4995 70.2512 43.1577C69.9501 42.8159 69.7101 42.3765 69.531 41.8394C69.352 41.2941 69.2625 40.6309 69.2625 39.8496C69.2625 38.4987 69.6043 37.4489 70.2879 36.7002C70.9714 35.9515 72.005 35.5771 73.3884 35.5771C73.5024 35.5771 73.6326 35.5853 73.7791 35.6016C73.9337 35.6097 74.0842 35.6219 74.2307 35.6382C74.3853 35.6545 74.5278 35.6748 74.658 35.6992C74.7882 35.7236 74.8899 35.748 74.9631 35.7725V32.1958H77.9417V41.7051C77.9417 41.8516 77.9701 41.9574 78.0271 42.0225C78.0841 42.0876 78.1899 42.1201 78.3445 42.1201C78.4096 42.1201 78.4828 42.112 78.5642 42.0957C78.6456 42.0794 78.7392 42.0632 78.845 42.0469L79.1135 43.7559ZM74.9631 37.8477C74.776 37.7744 74.5766 37.7134 74.365 37.6646C74.1615 37.6076 73.954 37.5791 73.7424 37.5791C73.4739 37.5791 73.246 37.6117 73.0588 37.6768C72.8798 37.7419 72.7293 37.8599 72.6072 38.0308C72.4933 38.2017 72.4119 38.4336 72.363 38.7266C72.3142 39.0114 72.2898 39.3776 72.2898 39.8252C72.2898 40.6471 72.3793 41.2331 72.5584 41.583C72.7455 41.9248 73.0385 42.0957 73.4373 42.0957C73.6082 42.0957 73.7831 42.0794 73.9622 42.0469C74.1412 42.0062 74.304 41.9248 74.4504 41.8027C74.6051 41.6807 74.7271 41.5016 74.8167 41.2656C74.9143 41.0296 74.9631 40.7082 74.9631 40.3013V37.8477ZM87.469 43.7803C87.2819 43.8291 87.0581 43.8739 86.7977 43.9146C86.5372 43.9552 86.2605 43.9919 85.9676 44.0244C85.6827 44.057 85.3938 44.0814 85.1009 44.0977C84.816 44.1139 84.5556 44.1221 84.3196 44.1221C83.4326 44.1221 82.7002 44.0203 82.1224 43.8169C81.5446 43.6134 81.0848 43.3327 80.743 42.9746C80.4093 42.6084 80.1733 42.1812 80.035 41.6929C79.9048 41.1965 79.8396 40.6553 79.8396 40.0693C79.8396 39.5078 79.9088 38.9585 80.0472 38.4214C80.1855 37.8843 80.4174 37.4041 80.743 36.981C81.0685 36.5578 81.4957 36.2201 82.0247 35.9678C82.5618 35.7074 83.2251 35.5771 84.0145 35.5771C84.755 35.5771 85.3816 35.6789 85.8943 35.8823C86.4152 36.0776 86.8343 36.3462 87.1517 36.688C87.4772 37.0216 87.7091 37.4163 87.8475 37.8721C87.9939 38.3197 88.0672 38.7957 88.0672 39.3003C88.0672 39.4793 88.0591 39.6991 88.0428 39.9595C88.0265 40.2118 88.0102 40.4437 87.9939 40.6553H82.8182C82.8019 41.111 82.9565 41.4609 83.282 41.7051C83.6157 41.9492 84.1691 42.0713 84.9422 42.0713C85.4956 42.0713 86.0368 42.0225 86.5657 41.9248C87.0947 41.8271 87.5545 41.7091 87.9451 41.5708L87.469 43.7803ZM85.2229 39.1294C85.2718 38.5028 85.1863 38.0674 84.9666 37.8232C84.7469 37.571 84.4295 37.4448 84.0145 37.4448C83.7866 37.4448 83.5953 37.4855 83.4407 37.5669C83.2861 37.6483 83.164 37.7622 83.0745 37.9087C82.985 38.0552 82.9199 38.2342 82.8792 38.4458C82.8385 38.6493 82.8182 38.8771 82.8182 39.1294H85.2229ZM89.6234 44V35.6992H92.5775V36.5781C92.8379 36.2119 93.0861 35.9556 93.3221 35.8091C93.5662 35.6545 93.8592 35.5771 94.201 35.5771C94.5103 35.5771 94.7747 35.6138 94.9945 35.687C95.2223 35.7521 95.4299 35.8294 95.617 35.9189L95.1287 38.2017C94.9741 38.1284 94.8032 38.0633 94.6161 38.0063C94.4289 37.9494 94.1969 37.9209 93.9203 37.9209C93.7412 37.9209 93.5785 37.9535 93.432 38.0186C93.2855 38.0837 93.1553 38.165 93.0413 38.2627C92.9274 38.3522 92.8298 38.4458 92.7484 38.5435C92.6751 38.6411 92.6182 38.7266 92.5775 38.7998V44H89.6234ZM96.5385 41.6196C96.6605 41.6847 96.8151 41.7498 97.0023 41.8149C97.1976 41.8719 97.4052 41.9248 97.6249 41.9736C97.8446 42.0143 98.0643 42.0509 98.2841 42.0835C98.5119 42.1079 98.7235 42.1201 98.9188 42.1201C99.3257 42.1201 99.5984 42.0754 99.7367 41.9858C99.875 41.8882 99.9442 41.7498 99.9442 41.5708C99.9442 41.3999 99.8506 41.2616 99.6635 41.1558C99.4844 41.0418 99.2566 40.932 98.9799 40.8262C98.7113 40.7204 98.4143 40.6064 98.0887 40.4844C97.7714 40.3623 97.4743 40.1955 97.1976 39.9839C96.9291 39.7723 96.7012 39.5078 96.514 39.1904C96.335 38.873 96.2455 38.4661 96.2455 37.9697C96.2455 37.5221 96.335 37.1478 96.514 36.8467C96.7012 36.5374 96.9576 36.2892 97.2831 36.1021C97.6086 35.9149 97.9911 35.7806 98.4305 35.6992C98.87 35.6178 99.342 35.5771 99.8466 35.5771C100.31 35.5771 100.778 35.6138 101.25 35.687C101.722 35.7521 102.178 35.8498 102.618 35.98L102.19 38.0796C101.881 37.9494 101.551 37.8314 101.202 37.7256C100.852 37.6117 100.473 37.5547 100.066 37.5547C99.757 37.5547 99.5455 37.5954 99.4315 37.6768C99.3176 37.7581 99.2606 37.8761 99.2606 38.0308C99.2606 38.1772 99.3461 38.2993 99.517 38.397C99.696 38.4946 99.9157 38.5923 100.176 38.6899C100.445 38.7876 100.73 38.9015 101.031 39.0317C101.34 39.1619 101.625 39.3369 101.885 39.5566C102.154 39.7764 102.373 40.0531 102.544 40.3867C102.723 40.7204 102.813 41.1395 102.813 41.644C102.813 42.0509 102.719 42.409 102.532 42.7183C102.353 43.0275 102.105 43.2879 101.787 43.4995C101.47 43.703 101.092 43.8576 100.652 43.9634C100.221 44.0692 99.757 44.1221 99.2606 44.1221C98.5363 44.1221 97.9138 44.0854 97.3929 44.0122C96.8721 43.939 96.4286 43.8535 96.0624 43.7559L96.5385 41.6196ZM107.292 44V32.3301H111.565C112.444 32.3301 113.18 32.444 113.774 32.6719C114.368 32.8997 114.849 33.2008 115.215 33.5752C115.581 33.9495 115.841 34.3809 115.996 34.8691C116.159 35.3493 116.24 35.8416 116.24 36.3462C116.24 36.9728 116.151 37.5465 115.972 38.0674C115.793 38.5801 115.52 39.0236 115.154 39.3979C114.796 39.7723 114.344 40.0612 113.799 40.2646C113.254 40.4681 112.619 40.5698 111.894 40.5698H110.564V44H107.292ZM111.443 38.0308C111.972 38.0308 112.35 37.9006 112.578 37.6401C112.806 37.3716 112.92 36.9647 112.92 36.4194C112.92 35.9067 112.806 35.5202 112.578 35.2598C112.35 34.9993 111.972 34.8691 111.443 34.8691H110.564V38.0308H111.443ZM124.925 43.7803C124.738 43.8291 124.514 43.8739 124.254 43.9146C123.993 43.9552 123.717 43.9919 123.424 44.0244C123.139 44.057 122.85 44.0814 122.557 44.0977C122.272 44.1139 122.012 44.1221 121.776 44.1221C120.889 44.1221 120.156 44.0203 119.579 43.8169C119.001 43.6134 118.541 43.3327 118.199 42.9746C117.866 42.6084 117.63 42.1812 117.491 41.6929C117.361 41.1965 117.296 40.6553 117.296 40.0693C117.296 39.5078 117.365 38.9585 117.503 38.4214C117.642 37.8843 117.874 37.4041 118.199 36.981C118.525 36.5578 118.952 36.2201 119.481 35.9678C120.018 35.7074 120.681 35.5771 121.471 35.5771C122.211 35.5771 122.838 35.6789 123.351 35.8823C123.871 36.0776 124.291 36.3462 124.608 36.688C124.933 37.0216 125.165 37.4163 125.304 37.8721C125.45 38.3197 125.523 38.7957 125.523 39.3003C125.523 39.4793 125.515 39.6991 125.499 39.9595C125.483 40.2118 125.466 40.4437 125.45 40.6553H120.274C120.258 41.111 120.413 41.4609 120.738 41.7051C121.072 41.9492 121.625 42.0713 122.398 42.0713C122.952 42.0713 123.493 42.0225 124.022 41.9248C124.551 41.8271 125.011 41.7091 125.401 41.5708L124.925 43.7803ZM122.679 39.1294C122.728 38.5028 122.643 38.0674 122.423 37.8232C122.203 37.571 121.886 37.4448 121.471 37.4448C121.243 37.4448 121.052 37.4855 120.897 37.5669C120.742 37.6483 120.62 37.7622 120.531 37.9087C120.441 38.0552 120.376 38.2342 120.335 38.4458C120.295 38.6493 120.274 38.8771 120.274 39.1294H122.679ZM127.08 44V35.6992H130.034V36.5781C130.294 36.2119 130.542 35.9556 130.778 35.8091C131.022 35.6545 131.315 35.5771 131.657 35.5771C131.967 35.5771 132.231 35.6138 132.451 35.687C132.679 35.7521 132.886 35.8294 133.073 35.9189L132.585 38.2017C132.43 38.1284 132.259 38.0633 132.072 38.0063C131.885 37.9494 131.653 37.9209 131.377 37.9209C131.197 37.9209 131.035 37.9535 130.888 38.0186C130.742 38.0837 130.612 38.165 130.498 38.2627C130.384 38.3522 130.286 38.4458 130.205 38.5435C130.131 38.6411 130.074 38.7266 130.034 38.7998V44H127.08ZM135.081 44V37.75H133.628L134.056 35.6992H135.081V34.979C135.081 34.4582 135.142 34.0106 135.264 33.6362C135.386 33.2619 135.582 32.9526 135.85 32.7085C136.119 32.4644 136.469 32.2853 136.9 32.1714C137.331 32.0575 137.852 32.0005 138.462 32.0005C138.804 32.0005 139.146 32.0168 139.488 32.0493C139.838 32.0819 140.253 32.1551 140.733 32.269L140.257 34.3198C140.192 34.2954 140.11 34.271 140.013 34.2466C139.915 34.2222 139.809 34.2018 139.695 34.1855C139.59 34.1693 139.48 34.1571 139.366 34.1489C139.26 34.1326 139.166 34.1245 139.085 34.1245C138.898 34.1245 138.739 34.1408 138.609 34.1733C138.479 34.1978 138.373 34.2466 138.292 34.3198C138.21 34.3931 138.149 34.4948 138.108 34.625C138.076 34.7552 138.06 34.922 138.06 35.1255V35.6992H139.988V37.75H138.06V44H135.081ZM149.552 39.8496C149.552 40.7448 149.418 41.4731 149.15 42.0347C148.889 42.5881 148.547 43.0194 148.124 43.3286C147.709 43.6379 147.237 43.8494 146.708 43.9634C146.179 44.0692 145.654 44.1221 145.133 44.1221C144.604 44.1221 144.071 44.0692 143.534 43.9634C143.005 43.8494 142.525 43.6379 142.094 43.3286C141.671 43.0194 141.325 42.5881 141.056 42.0347C140.788 41.4731 140.653 40.7448 140.653 39.8496C140.653 38.9544 140.788 38.2301 141.056 37.6768C141.325 37.1152 141.671 36.6799 142.094 36.3706C142.525 36.0614 143.005 35.8538 143.534 35.748C144.071 35.6341 144.604 35.5771 145.133 35.5771C145.662 35.5771 146.191 35.6341 146.72 35.748C147.249 35.8538 147.721 36.0614 148.136 36.3706C148.56 36.6799 148.901 37.1152 149.162 37.6768C149.422 38.2301 149.552 38.9544 149.552 39.8496ZM145.133 42.2056C145.353 42.2056 145.548 42.1689 145.719 42.0957C145.898 42.0225 146.049 41.9004 146.171 41.7295C146.301 41.5505 146.399 41.3104 146.464 41.0093C146.529 40.7 146.562 40.3135 146.562 39.8496C146.562 39.3857 146.529 39.0033 146.464 38.7021C146.399 38.401 146.301 38.161 146.171 37.9819C146.049 37.8029 145.898 37.6808 145.719 37.6157C145.548 37.5425 145.353 37.5059 145.133 37.5059C144.906 37.5059 144.702 37.5425 144.523 37.6157C144.344 37.6808 144.189 37.8029 144.059 37.9819C143.937 38.161 143.844 38.401 143.778 38.7021C143.713 39.0033 143.681 39.3857 143.681 39.8496C143.681 40.3135 143.713 40.7 143.778 41.0093C143.844 41.3104 143.937 41.5505 144.059 41.7295C144.189 41.9004 144.344 42.0225 144.523 42.0957C144.702 42.1689 144.906 42.2056 145.133 42.2056ZM151.121 44V35.6992H154.075V36.5781C154.335 36.2119 154.583 35.9556 154.819 35.8091C155.064 35.6545 155.357 35.5771 155.698 35.5771C156.008 35.5771 156.272 35.6138 156.492 35.687C156.72 35.7521 156.927 35.8294 157.114 35.9189L156.626 38.2017C156.472 38.1284 156.301 38.0633 156.113 38.0063C155.926 37.9494 155.694 37.9209 155.418 37.9209C155.239 37.9209 155.076 37.9535 154.929 38.0186C154.783 38.0837 154.653 38.165 154.539 38.2627C154.425 38.3522 154.327 38.4458 154.246 38.5435C154.173 38.6411 154.116 38.7266 154.075 38.7998V44H151.121ZM172.355 43.8047C172.249 43.8454 172.111 43.8901 171.94 43.939C171.777 43.9797 171.59 44.0163 171.378 44.0488C171.167 44.0895 170.935 44.118 170.682 44.1343C170.438 44.1587 170.186 44.1709 169.925 44.1709C169.73 44.1709 169.531 44.1465 169.327 44.0977C169.124 44.057 168.937 43.9756 168.766 43.8535C168.603 43.7314 168.469 43.5605 168.363 43.3408C168.257 43.113 168.204 42.8159 168.204 42.4497V38.8242C168.204 38.5475 168.164 38.3563 168.082 38.2505C168.001 38.1366 167.81 38.0796 167.508 38.0796C167.411 38.0796 167.305 38.0999 167.191 38.1406C167.077 38.1813 166.959 38.2342 166.837 38.2993C166.715 38.3644 166.597 38.4377 166.483 38.519C166.369 38.6004 166.267 38.6859 166.178 38.7754V44H163.224V38.8242C163.224 38.5882 163.187 38.4051 163.114 38.2749C163.041 38.1447 162.854 38.0796 162.552 38.0796C162.422 38.0796 162.288 38.104 162.15 38.1528C162.019 38.2017 161.893 38.2627 161.771 38.3359C161.649 38.401 161.535 38.4743 161.429 38.5557C161.332 38.637 161.25 38.7103 161.185 38.7754V44H158.231V35.6992H161.185V36.5537C161.315 36.4398 161.458 36.3258 161.613 36.2119C161.775 36.098 161.954 35.9963 162.15 35.9067C162.353 35.8091 162.573 35.7318 162.809 35.6748C163.053 35.6097 163.326 35.5771 163.627 35.5771C164.213 35.5771 164.701 35.6504 165.092 35.7969C165.49 35.9434 165.779 36.2363 165.958 36.6758C166.357 36.3665 166.784 36.1061 167.24 35.8945C167.704 35.6829 168.225 35.5771 168.802 35.5771C169.217 35.5771 169.571 35.6138 169.864 35.687C170.166 35.7521 170.41 35.8823 170.597 36.0776C170.792 36.2648 170.935 36.5252 171.024 36.8589C171.114 37.1925 171.158 37.6239 171.158 38.1528V41.7539C171.158 42.0306 171.301 42.1689 171.586 42.1689C171.651 42.1689 171.724 42.1608 171.805 42.1445C171.887 42.1283 171.976 42.112 172.074 42.0957L172.355 43.8047ZM181.723 43.7559C181.593 43.8128 181.434 43.8657 181.247 43.9146C181.06 43.9552 180.861 43.9919 180.649 44.0244C180.438 44.057 180.222 44.0814 180.002 44.0977C179.782 44.1139 179.575 44.1221 179.38 44.1221C179.111 44.1221 178.879 44.0977 178.684 44.0488C178.497 44 178.338 43.939 178.208 43.8657C178.086 43.7843 177.984 43.6948 177.903 43.5972C177.829 43.4914 177.772 43.3856 177.732 43.2798C177.544 43.5321 177.272 43.7355 176.914 43.8901C176.564 44.0448 176.092 44.1221 175.498 44.1221C175.018 44.1221 174.607 44.0651 174.265 43.9512C173.923 43.8291 173.642 43.6623 173.423 43.4507C173.211 43.2391 173.052 42.9909 172.947 42.7061C172.849 42.4131 172.8 42.0957 172.8 41.7539C172.8 41.1924 172.914 40.7204 173.142 40.3379C173.378 39.9554 173.683 39.6462 174.057 39.4102C174.44 39.1742 174.875 39.0073 175.364 38.9097C175.86 38.8039 176.373 38.751 176.902 38.751C177.032 38.751 177.162 38.755 177.292 38.7632C177.431 38.7713 177.532 38.7835 177.597 38.7998V38.5557C177.597 38.3929 177.577 38.2546 177.536 38.1406C177.496 38.0267 177.418 37.9331 177.304 37.8599C177.199 37.7866 177.044 37.7337 176.841 37.7012C176.637 37.6686 176.373 37.6523 176.047 37.6523C175.624 37.6523 175.168 37.6971 174.68 37.7866C174.2 37.8761 173.756 37.9982 173.349 38.1528L173.801 35.98C174.167 35.866 174.59 35.7725 175.071 35.6992C175.551 35.6178 176.043 35.5771 176.548 35.5771C177.158 35.5771 177.711 35.6138 178.208 35.687C178.704 35.7521 179.123 35.8945 179.465 36.1143C179.815 36.3258 180.084 36.6351 180.271 37.042C180.458 37.4408 180.551 37.9697 180.551 38.6289V41.7051C180.551 41.8516 180.58 41.9574 180.637 42.0225C180.702 42.0876 180.816 42.1201 180.979 42.1201C181.044 42.1201 181.117 42.112 181.198 42.0957C181.28 42.0794 181.365 42.0632 181.455 42.0469L181.723 43.7559ZM177.597 40.3257C177.549 40.3094 177.467 40.3013 177.353 40.3013C177.239 40.3013 177.129 40.3013 177.024 40.3013C176.544 40.3013 176.198 40.3745 175.986 40.521C175.783 40.6593 175.681 40.8709 175.681 41.1558C175.681 41.3674 175.705 41.5382 175.754 41.6685C175.811 41.7905 175.88 41.8882 175.962 41.9614C176.051 42.0265 176.149 42.0713 176.255 42.0957C176.369 42.112 176.482 42.1201 176.596 42.1201C176.954 42.1201 177.211 42.0347 177.365 41.8638C177.52 41.6929 177.597 41.3877 177.597 40.9482V40.3257ZM191.861 43.8047C191.755 43.8454 191.617 43.8901 191.446 43.939C191.283 43.9797 191.096 44.0163 190.885 44.0488C190.673 44.0895 190.441 44.118 190.189 44.1343C189.945 44.1587 189.692 44.1709 189.432 44.1709C189.237 44.1709 189.037 44.1465 188.834 44.0977C188.63 44.057 188.443 43.9756 188.272 43.8535C188.109 43.7314 187.975 43.5605 187.869 43.3408C187.764 43.113 187.711 42.8159 187.711 42.4497V38.9463C187.711 38.7917 187.707 38.6574 187.699 38.5435C187.69 38.4295 187.662 38.3359 187.613 38.2627C187.572 38.1813 187.503 38.1243 187.406 38.0918C187.316 38.0511 187.182 38.0308 187.003 38.0308C186.84 38.0308 186.677 38.0592 186.514 38.1162C186.36 38.1732 186.213 38.2424 186.075 38.3237C185.937 38.397 185.815 38.4743 185.709 38.5557C185.611 38.6289 185.538 38.6859 185.489 38.7266V44H182.535V35.6992H185.489V36.5537C185.619 36.4561 185.766 36.3503 185.928 36.2363C186.099 36.1224 186.291 36.0166 186.502 35.9189C186.714 35.8213 186.954 35.7399 187.222 35.6748C187.491 35.6097 187.796 35.5771 188.138 35.5771C188.553 35.5771 188.919 35.6056 189.237 35.6626C189.562 35.7196 189.831 35.8416 190.042 36.0288C190.254 36.2078 190.413 36.4683 190.518 36.8101C190.632 37.1437 190.689 37.5913 190.689 38.1528V41.7539C190.689 41.9004 190.718 42.0062 190.775 42.0713C190.832 42.1364 190.933 42.1689 191.08 42.1689C191.145 42.1689 191.218 42.1608 191.3 42.1445C191.389 42.1283 191.483 42.112 191.58 42.0957L191.861 43.8047ZM199.02 43.7559C198.719 43.8698 198.353 43.9593 197.922 44.0244C197.499 44.0895 197.075 44.1221 196.652 44.1221C196.441 44.1221 196.188 44.1058 195.895 44.0732C195.602 44.0488 195.297 43.9878 194.98 43.8901C194.662 43.7925 194.349 43.6501 194.04 43.4629C193.731 43.2757 193.454 43.0194 193.21 42.6938C192.966 42.3683 192.766 41.9696 192.612 41.4976C192.465 41.0256 192.392 40.4518 192.392 39.7764C192.392 39.2799 192.465 38.7835 192.612 38.2871C192.758 37.7907 193.002 37.3431 193.344 36.9443C193.694 36.5374 194.154 36.2078 194.723 35.9556C195.301 35.7033 196.017 35.5771 196.872 35.5771C197.1 35.5771 197.336 35.5894 197.58 35.6138C197.824 35.6382 198.06 35.6707 198.288 35.7114C198.524 35.744 198.744 35.7847 198.947 35.8335C199.159 35.8823 199.342 35.9312 199.496 35.98L199.02 38.2261C198.784 38.1121 198.536 38.0226 198.276 37.9575C198.015 37.8843 197.722 37.8477 197.397 37.8477C196.974 37.8477 196.632 37.9046 196.371 38.0186C196.111 38.1243 195.912 38.2708 195.773 38.458C195.635 38.637 195.541 38.8486 195.493 39.0928C195.444 39.3288 195.419 39.5811 195.419 39.8496C195.419 40.1914 195.452 40.4884 195.517 40.7407C195.582 40.9849 195.696 41.1924 195.859 41.3633C196.021 41.526 196.241 41.6481 196.518 41.7295C196.803 41.8109 197.161 41.8516 197.592 41.8516C197.747 41.8516 197.914 41.8394 198.093 41.8149C198.272 41.7905 198.447 41.762 198.618 41.7295C198.788 41.6969 198.947 41.6644 199.094 41.6318C199.248 41.5911 199.382 41.5545 199.496 41.522L199.02 43.7559ZM207.742 43.7803C207.555 43.8291 207.331 43.8739 207.071 43.9146C206.81 43.9552 206.534 43.9919 206.241 44.0244C205.956 44.057 205.667 44.0814 205.374 44.0977C205.089 44.1139 204.829 44.1221 204.593 44.1221C203.706 44.1221 202.973 44.0203 202.395 43.8169C201.818 43.6134 201.358 43.3327 201.016 42.9746C200.682 42.6084 200.446 42.1812 200.308 41.6929C200.178 41.1965 200.113 40.6553 200.113 40.0693C200.113 39.5078 200.182 38.9585 200.32 38.4214C200.459 37.8843 200.69 37.4041 201.016 36.981C201.341 36.5578 201.769 36.2201 202.298 35.9678C202.835 35.7074 203.498 35.5771 204.287 35.5771C205.028 35.5771 205.655 35.6789 206.167 35.8823C206.688 36.0776 207.107 36.3462 207.425 36.688C207.75 37.0216 207.982 37.4163 208.12 37.8721C208.267 38.3197 208.34 38.7957 208.34 39.3003C208.34 39.4793 208.332 39.6991 208.316 39.9595C208.3 40.2118 208.283 40.4437 208.267 40.6553H203.091C203.075 41.111 203.23 41.4609 203.555 41.7051C203.889 41.9492 204.442 42.0713 205.215 42.0713C205.769 42.0713 206.31 42.0225 206.839 41.9248C207.368 41.8271 207.827 41.7091 208.218 41.5708L207.742 43.7803ZM205.496 39.1294C205.545 38.5028 205.459 38.0674 205.24 37.8232C205.02 37.571 204.702 37.4448 204.287 37.4448C204.06 37.4448 203.868 37.4855 203.714 37.5669C203.559 37.6483 203.437 37.7622 203.348 37.9087C203.258 38.0552 203.193 38.2342 203.152 38.4458C203.112 38.6493 203.091 38.8771 203.091 39.1294H205.496Z" fill="white"/>
<g clip-path="url(#clip0_300_538)">
<path d="M33.656 43.4721C35.2151 42.9115 36.0247 41.1931 35.4641 39.634C34.9036 38.0748 33.1852 37.2653 31.6261 37.8259C30.0669 38.3864 29.2574 40.1048 29.8179 41.6639C30.3785 43.2231 32.0968 44.0326 33.656 43.4721Z" fill="#856A30"/>
<path d="M38.0203 18.5549L39.9308 13.8576C34.7374 11.2562 28.5325 10.6975 22.6351 12.8177C11.2015 16.9283 5.26583 29.5327 9.3754 40.9634C9.42479 41.1008 9.4807 41.2327 9.53292 41.3691L10.0467 41.1843C7.14266 31.351 12.359 20.8425 22.1317 17.3291C27.5746 15.3722 33.3091 15.997 38.0203 18.5549Z" fill="white"/>
<path d="M32.3723 41.3651L43.0807 15.0229" stroke="#856A30" stroke-width="3" stroke-miterlimit="10"/>
<path d="M43.4579 22.9296C44.5381 24.1756 45.4831 25.5627 46.2326 27.0976L51.1162 27.1792C51.0064 26.8117 50.9124 26.4438 50.7808 26.0777C49.6274 22.8698 47.7952 20.1056 45.5172 17.8631L43.4579 22.9296Z" fill="white"/>
</g>
<defs>
<clipPath id="clip0_300_538">
<rect width="44" height="44" fill="white" transform="translate(0 14.8857) rotate(-19.7745)"/>
</clipPath>
</defs>
</svg>
