<svg width="32" height="32" viewBox="0 0 32 32" fill="none" xmlns="http://www.w3.org/2000/svg">
<path d="M30.18 25.5782C30.65 25.2083 30.95 24.6403 30.95 24.0003C30.95 23.2844 30.574 22.6564 30.008 22.3025L30 10.6592L28 11.9991V22.2985C27.434 22.6584 27.064 23.2824 27.064 23.9923C27.064 24.6243 27.358 25.1883 27.816 25.5562L27.06 26.5602C26.414 27.3801 26.018 28.4221 26 29.556V31.9998H27.62C27.624 31.9998 27.63 31.9998 27.63 31.9998C28.452 31.9998 29.144 31.4359 29.336 30.6719L29.998 28.0001V31.9998H31.998V29.58C31.98 28.4421 31.584 27.4001 30.93 26.5702L30.18 25.5782Z" fill="#856A30"/>
<path d="M16 0L0 7.9995L16 17.9989L32 7.9995L16 0Z" fill="white"/>
<path d="M16 19.9985L6 13.3389V16.7587C6 18.5785 11.88 23.9982 16 23.9982C20.12 23.9982 26 18.5785 26 16.7587V13.3389L16 19.9985Z" fill="white"/>
</svg>
