<svg width="29" height="29" viewBox="0 0 29 29" fill="none" xmlns="http://www.w3.org/2000/svg">
<path d="M27.8389 0H1.16113C0.521094 0 0 0.521094 0 1.16113V27.8389C0 28.4789 0.521094 29 1.16113 29H27.8389C28.4789 29 29 28.4789 29 27.8389V1.16113C29 0.521094 28.4789 0 27.8389 0ZM11.8945 23.6701H10.0537C9.97441 23.6701 9.88945 23.6305 9.83848 23.5625L8.55273 21.9879L7.26699 23.5625C7.21602 23.6305 7.13672 23.6701 7.05176 23.6701H5.21094C4.97305 23.6701 4.84277 23.3812 5.00137 23.1943L7.27266 20.4076L5.05234 17.6945C4.89375 17.5076 5.02969 17.2188 5.26758 17.2188H7.11406C7.19336 17.2188 7.27832 17.2584 7.3293 17.3264L8.56406 18.833L9.79883 17.3264C9.85547 17.2584 9.9291 17.2188 10.0141 17.2188H11.8549C12.0928 17.2188 12.223 17.5076 12.0701 17.6945L9.8498 20.4076L12.1211 23.1943C12.2684 23.3869 12.1381 23.6701 11.8945 23.6701ZM12.1777 9.82148C12.1777 9.90078 12.1268 9.96875 12.0645 9.96875H9.57227V12.4609C9.57227 12.5289 9.5043 12.5799 9.425 12.5799H7.68613C7.60684 12.5799 7.53887 12.5289 7.53887 12.4666V9.97441H5.04668C4.97871 9.97441 4.9334 9.90645 4.9334 9.82715V8.08828C4.9334 8.00898 4.98437 7.94102 5.04668 7.94102H7.53887V5.44883C7.53887 5.38086 7.60684 5.33555 7.68613 5.33555H9.425C9.5043 5.33555 9.57227 5.38652 9.57227 5.44883V7.94102H12.0645C12.1324 7.94102 12.1834 8.00898 12.1834 8.08828V9.82148H12.1777ZM24.0723 23.2C24.0723 23.2793 24.0213 23.3473 23.959 23.3473H16.9355C16.8676 23.3473 16.8223 23.2793 16.8223 23.2V21.4611C16.8223 21.3818 16.8732 21.3139 16.9355 21.3139H23.9477C24.0156 21.3139 24.0666 21.3818 24.0666 21.4611V23.2H24.0723ZM24.0723 19.4277C24.0723 19.507 24.0213 19.575 23.959 19.575H16.9355C16.8676 19.575 16.8223 19.507 16.8223 19.4277V17.6889C16.8223 17.6096 16.8732 17.5416 16.9355 17.5416H23.9477C24.0156 17.5416 24.0666 17.6096 24.0666 17.6889V19.4277H24.0723ZM24.0723 9.82148C24.0723 9.90078 24.0213 9.96875 23.959 9.96875H16.9355C16.8676 9.96875 16.8223 9.90078 16.8223 9.82148V8.08262C16.8223 8.00332 16.8732 7.93535 16.9355 7.93535H23.9477C24.0156 7.93535 24.0666 8.00332 24.0666 8.08262V9.82148H24.0723Z" fill="white"/>
</svg>
