<?xml version="1.0" encoding="utf-8"?>
<!-- Generator: Adobe Illustrator 21.0.0, SVG Export Plug-In . SVG Version: 6.00 Build 0)  -->
<svg version="1.1" id="Layer_1" xmlns="http://www.w3.org/2000/svg" xmlns:xlink="http://www.w3.org/1999/xlink" x="0px" y="0px"
	 viewBox="0 0 512 512" style="enable-background:new 0 0 512 512;" xml:space="preserve">
<g>
	<path d="M491.5,0h-471C9.2,0,0,9.2,0,20.5v471C0,502.8,9.2,512,20.5,512h471c11.3,0,20.5-9.2,20.5-20.5v-471
		C512,9.2,502.8,0,491.5,0z M210,417.9h-32.5c-1.4,0-2.9-0.7-3.8-1.9L151,388.2L128.3,416c-0.9,1.2-2.3,1.9-3.8,1.9H92
		c-4.2,0-6.5-5.1-3.7-8.4l40.1-49.2l-39.2-47.9c-2.8-3.3-0.4-8.4,3.8-8.4h32.6c1.4,0,2.9,0.7,3.8,1.9l21.8,26.6l21.8-26.6
		c1-1.2,2.3-1.9,3.8-1.9h32.5c4.2,0,6.5,5.1,3.8,8.4l-39.2,47.9l40.1,49.2C216.6,412.9,214.3,417.9,210,417.9z M215,173.4
		c0,1.4-0.9,2.6-2,2.6h-44v44c0,1.2-1.2,2.1-2.6,2.1h-30.7c-1.4,0-2.6-0.9-2.6-2v-44h-44c-1.2,0-2-1.2-2-2.6v-30.7
		c0-1.4,0.9-2.6,2-2.6h44v-44c0-1.2,1.2-2,2.6-2h30.7c1.4,0,2.6,0.9,2.6,2v44h44c1.2,0,2.1,1.2,2.1,2.6v30.6H215z M425,409.6
		c0,1.4-0.9,2.6-2,2.6H299c-1.2,0-2-1.2-2-2.6v-30.7c0-1.4,0.9-2.6,2-2.6h123.8c1.2,0,2.1,1.2,2.1,2.6v30.7H425z M425,343
		c0,1.4-0.9,2.6-2,2.6H299c-1.2,0-2-1.2-2-2.6v-30.7c0-1.4,0.9-2.6,2-2.6h123.8c1.2,0,2.1,1.2,2.1,2.6V343H425z M425,173.4
		c0,1.4-0.9,2.6-2,2.6H299c-1.2,0-2-1.2-2-2.6v-30.7c0-1.4,0.9-2.6,2-2.6h123.8c1.2,0,2.1,1.2,2.1,2.6v30.7H425z"/>
</g>
</svg>
