<svg width="32" height="32" viewBox="0 0 32 32" fill="none" xmlns="http://www.w3.org/2000/svg">
<path d="M30.7188 0H1.28125C0.575 0 0 0.575 0 1.28125V30.7188C0 31.425 0.575 32 1.28125 32H30.7188C31.425 32 32 31.425 32 30.7188V1.28125C32 0.575 31.425 0 30.7188 0ZM13.125 26.1187H11.0938C11.0063 26.1187 10.9125 26.075 10.8562 26L9.4375 24.2625L8.01875 26C7.9625 26.075 7.875 26.1187 7.78125 26.1187H5.75C5.4875 26.1187 5.34375 25.8 5.51875 25.5938L8.025 22.5187L5.575 19.525C5.4 19.3187 5.55 19 5.8125 19H7.85C7.9375 19 8.03125 19.0437 8.0875 19.1187L9.45 20.7812L10.8125 19.1187C10.875 19.0437 10.9563 19 11.05 19H13.0813C13.3438 19 13.4875 19.3187 13.3188 19.525L10.8687 22.5187L13.375 25.5938C13.5375 25.8063 13.3938 26.1187 13.125 26.1187ZM13.4375 10.8375C13.4375 10.925 13.3813 11 13.3125 11H10.5625V13.75C10.5625 13.825 10.4875 13.8813 10.4 13.8813H8.48125C8.39375 13.8813 8.31875 13.825 8.31875 13.7563V11.0063H5.56875C5.49375 11.0063 5.44375 10.9312 5.44375 10.8438V8.925C5.44375 8.8375 5.5 8.7625 5.56875 8.7625H8.31875V6.0125C8.31875 5.9375 8.39375 5.8875 8.48125 5.8875H10.4C10.4875 5.8875 10.5625 5.94375 10.5625 6.0125V8.7625H13.3125C13.3875 8.7625 13.4438 8.8375 13.4438 8.925V10.8375H13.4375ZM26.5625 25.6C26.5625 25.6875 26.5063 25.7625 26.4375 25.7625H18.6875C18.6125 25.7625 18.5625 25.6875 18.5625 25.6V23.6812C18.5625 23.5937 18.6187 23.5187 18.6875 23.5187H26.425C26.5 23.5187 26.5562 23.5937 26.5562 23.6812V25.6H26.5625ZM26.5625 21.4375C26.5625 21.525 26.5063 21.6 26.4375 21.6H18.6875C18.6125 21.6 18.5625 21.525 18.5625 21.4375V19.5187C18.5625 19.4312 18.6187 19.3563 18.6875 19.3563H26.425C26.5 19.3563 26.5562 19.4312 26.5562 19.5187V21.4375H26.5625ZM26.5625 10.8375C26.5625 10.925 26.5063 11 26.4375 11H18.6875C18.6125 11 18.5625 10.925 18.5625 10.8375V8.91875C18.5625 8.83125 18.6187 8.75625 18.6875 8.75625H26.425C26.5 8.75625 26.5562 8.83125 26.5562 8.91875V10.8375H26.5625Z" fill="white"/>
</svg>
