<svg width="24" height="24" viewBox="0 0 24 24" fill="none" xmlns="http://www.w3.org/2000/svg">
<path d="M2.86947 13.8027H0.347659C0.155935 13.8027 0 14.0046 0 14.2488V23.5567C0 23.8009 0.155935 23.9996 0.347659 23.9996H2.86947C3.06119 23.9996 3.21713 23.8009 3.21713 23.5567V14.2488C3.21841 14.0046 3.06247 13.8027 2.86947 13.8027Z" fill="white"/>
<path d="M23.6514 13.8027H21.1296C20.9379 13.8027 20.7832 14.0046 20.7832 14.2488V23.5567C20.7832 23.8009 20.9379 23.9996 21.1296 23.9996H23.6514C23.8457 23.9996 24.0003 23.8009 24.0003 23.5567V14.2488C24.0003 14.0046 23.8457 13.8027 23.6514 13.8027Z" fill="white"/>
<path d="M7.55043 8.48242H5.02863C4.8369 8.48242 4.67969 8.68105 4.67969 8.92689V23.5538C4.67969 23.798 4.8369 23.9966 5.02863 23.9966H7.55043C7.74344 23.9966 7.89937 23.798 7.89937 23.5538V8.92689C7.89937 8.67942 7.74344 8.48242 7.55043 8.48242Z" fill="#E4CB86"/>
<path d="M18.2403 8.48242H15.7185C15.5267 8.48242 15.3721 8.68105 15.3721 8.92689V23.5538C15.3721 23.798 15.5267 23.9966 15.7185 23.9966H18.2403C18.4345 23.9966 18.5892 23.798 18.5892 23.5538V8.92689C18.5905 8.67942 18.4358 8.48242 18.2403 8.48242Z" fill="#E4CB86"/>
<path d="M12.7946 11.7227H10.2715C10.0798 11.7227 9.92383 11.9229 9.92383 12.1655V23.5525C9.92383 23.7967 10.0798 23.9953 10.2715 23.9953H12.7946C12.9889 23.9953 13.1435 23.7967 13.1435 23.5525V12.1655C13.1435 11.9229 12.9889 11.7227 12.7946 11.7227Z" fill="white"/>
<path d="M1.60897 8.02492C2.35158 8.02492 2.95232 7.25972 2.95232 6.31379C2.95232 6.14935 2.92803 5.99468 2.89352 5.84489L5.71953 3.25458C5.89336 3.35878 6.08508 3.42065 6.28959 3.42065C6.68454 3.42065 7.03476 3.20085 7.28144 2.85569L9.94896 4.82244C9.93362 4.92339 9.9234 5.02759 9.9234 5.13178C9.9234 6.07608 10.5254 6.84292 11.2667 6.84292C11.9812 6.84292 12.5602 6.12981 12.6011 5.23273L16.1979 3.8928C16.442 4.31936 16.8344 4.60102 17.2818 4.60102C17.5783 4.60102 17.848 4.47566 18.0704 4.26726L21.0932 6.87874C21.0677 7.01387 21.0459 7.15552 21.0459 7.30205C21.0459 8.24797 21.648 9.01481 22.3893 9.01481C23.1306 9.01481 23.7352 8.24797 23.7352 7.30205C23.7352 6.35612 23.1306 5.59091 22.3893 5.59091C22.0928 5.59091 21.8231 5.71627 21.6007 5.92304L18.5804 3.31645C18.6059 3.17969 18.6251 3.03967 18.6251 2.89314C18.6251 1.94721 18.0257 1.182 17.2818 1.182C16.5673 1.182 15.9883 1.89511 15.9461 2.7922L12.3506 4.1305C12.1065 3.70231 11.7128 3.42227 11.2667 3.42227C10.9357 3.42227 10.6379 3.57857 10.404 3.83093L7.62782 1.78115C7.62782 1.75672 7.63294 1.73556 7.63294 1.71277C7.63294 0.766837 7.0322 0 6.28959 0C5.54698 0 4.94624 0.765209 4.94624 1.71114C4.94624 1.96838 4.99481 2.20934 5.07406 2.42913L2.37075 4.90711C2.15474 4.71499 1.89272 4.60265 1.60897 4.60265C0.86636 4.60265 0.265625 5.36949 0.265625 6.31379C0.265625 7.25972 0.86636 8.02492 1.60897 8.02492Z" fill="white"/>
</svg>
