<svg width="32" height="22" viewBox="0 0 32 22" fill="none" xmlns="http://www.w3.org/2000/svg">
<g clip-path="url(#clip0_2520_570)">
<path fill-rule="evenodd" clip-rule="evenodd" d="M25.6875 11.875V3.94792L32 0V15.9297L25.6875 11.875ZM2.46875 0.0989583H22.349C23.0035 0.100332 23.6309 0.36079 24.094 0.823398C24.5571 1.28601 24.8183 1.91314 24.8203 2.56771V13.3047C24.8176 13.959 24.5562 14.5858 24.0933 15.0482C23.6303 15.5107 23.0033 15.7714 22.349 15.7734H14.6172L17.9036 21.0469H14.8438L11.2578 16.2266L7.63802 21.0469H4.53125L7.8125 15.7734H2.46875C1.81463 15.7714 1.18789 15.5106 0.725356 15.0481C0.262821 14.5855 0.00206023 13.9588 0 13.3047L0 2.56771C0.00206023 1.91359 0.262821 1.28685 0.725356 0.824314C1.18789 0.36178 1.81463 0.101019 2.46875 0.0989583ZM19.9557 8.23437L20.9766 8.53906C20.9197 8.79756 20.8097 9.04143 20.6536 9.25521C20.5104 9.44383 20.3212 9.59265 20.1042 9.6875C19.8405 9.794 19.5576 9.84454 19.2734 9.83594C18.9302 9.84852 18.5883 9.78724 18.2708 9.65625C17.9904 9.51842 17.7567 9.30104 17.599 9.03125C17.3979 8.68286 17.2995 8.28473 17.3151 7.88281C17.2982 7.62296 17.3335 7.36235 17.4189 7.11636C17.5044 6.87037 17.6382 6.64397 17.8125 6.45052C18.0004 6.27644 18.2217 6.14236 18.463 6.05641C18.7043 5.97046 18.9605 5.93443 19.2161 5.95052C19.6106 5.93171 20.0012 6.0364 20.3333 6.25C20.625 6.47109 20.837 6.78089 20.9375 7.13281L19.9141 7.35937C19.891 7.26668 19.8522 7.1786 19.7995 7.09896C19.737 7.01239 19.6549 6.94188 19.5599 6.89323C19.4619 6.8453 19.3539 6.82121 19.2448 6.82292C19.1247 6.81796 19.0054 6.84471 18.8988 6.90048C18.7923 6.95625 18.7024 7.03907 18.638 7.14062C18.5206 7.36663 18.4692 7.62113 18.4896 7.875C18.4592 8.1736 18.5259 8.47405 18.6797 8.73177C18.7435 8.80708 18.8234 8.86704 18.9136 8.90716C19.0038 8.94729 19.1019 8.96656 19.2005 8.96354C19.2933 8.97034 19.3864 8.95711 19.4735 8.92476C19.5607 8.89241 19.6399 8.84169 19.7057 8.77604C19.8394 8.62201 19.9293 8.43496 19.9661 8.23437H19.9557ZM8.13021 7.85937C8.10761 8.47377 7.85343 9.05687 7.41869 9.49161C6.98395 9.92634 6.40085 10.1805 5.78646 10.2031C5.17206 10.1805 4.58896 9.92634 4.15423 9.49161C3.71949 9.05687 3.46531 8.47377 3.44271 7.85937C3.44271 6.35156 4.60417 5.59375 5.76823 5.58854C6.93229 5.58333 8.11198 6.34115 8.11198 7.85937H8.13021ZM5.78646 6.70052C6.01639 6.70001 6.24131 6.76775 6.43271 6.89518C6.62411 7.0226 6.77338 7.20397 6.86161 7.4163C6.94984 7.62864 6.97306 7.86238 6.92833 8.08793C6.8836 8.31347 6.77292 8.52066 6.61033 8.68325C6.44775 8.84584 6.24055 8.95651 6.01501 9.00124C5.78947 9.04598 5.55572 9.02276 5.34339 8.93453C5.13105 8.84629 4.94968 8.69702 4.82226 8.50562C4.69484 8.31422 4.62709 8.08931 4.6276 7.85937C4.62829 7.55224 4.75061 7.25788 4.96778 7.0407C5.18496 6.82352 5.47932 6.70121 5.78646 6.70052ZM13.737 6.01302H16.8542V6.8151H14.9115V7.41406H16.7109V8.17969H14.9115V8.91927H16.9115V9.77083H13.7448V6.01302H13.737ZM9.76563 9.77344V6.01302H11.7005C11.9778 6.00339 12.255 6.03409 12.5234 6.10417C12.7098 6.16393 12.871 6.28393 12.9818 6.44531C13.0896 6.61655 13.15 6.81333 13.1568 7.01555C13.1637 7.21778 13.1168 7.4182 13.0208 7.59635C12.9335 7.7492 12.8078 7.87665 12.6563 7.96615C12.5278 8.03436 12.39 8.08348 12.2474 8.11198C12.3538 8.14426 12.4554 8.19068 12.5495 8.25C12.6177 8.30949 12.6797 8.3758 12.7344 8.44792C12.795 8.52111 12.8491 8.59954 12.8958 8.68229L13.4609 9.76823H12.1589L11.5391 8.6224C11.4866 8.51214 11.4122 8.41377 11.3203 8.33333C11.2368 8.27394 11.1364 8.2429 11.0339 8.24479H10.9375V9.76823H9.77083L9.76563 9.77344ZM10.9375 7.55208H11.4297C11.5334 7.5436 11.6362 7.52618 11.737 7.5C11.8125 7.48733 11.88 7.44518 11.9245 7.38281C11.9784 7.30822 12.0038 7.21681 11.9961 7.1251C11.9885 7.0334 11.9483 6.94746 11.8828 6.88281C11.7567 6.80164 11.6081 6.76245 11.4583 6.77083H10.9375V7.55208Z" fill="white"/>
</g>
<defs>
<clipPath id="clip0_2520_570">
<rect width="32" height="21.0469" fill="white"/>
</clipPath>
</defs>
</svg>
